<svg width="385" height="287" viewBox="0 0 385 287" fill="none" xmlns="http://www.w3.org/2000/svg">
<path d="M384.999 37.3442V240.184H336.263V37.5018C338.023 36.9896 381.624 36.8189 384.999 37.3442Z" fill="currentColor"/>
<path d="M321.086 37.0754V239.784C319.195 240.283 278.128 240.519 272.258 240.02V37.0754H321.086Z" fill="currentColor"/>
<path d="M256.988 37.2443H208.159V240.071H256.988V37.2443Z" fill="currentColor"/>
<path d="M176.194 239.606C176.076 239.895 176.063 239.987 176.01 240.04C175.958 240.092 175.853 240.145 175.774 240.145C166.87 240.184 157.952 240.224 149.048 240.25H120.628C118.093 235.181 115.598 230.216 113.116 225.252C110.529 220.025 108.007 214.759 105.315 209.597C104.409 207.877 104.488 206.616 105.499 204.909C113.694 191.408 121.771 177.842 129.887 164.288C130.255 163.671 130.701 163.12 131.24 162.332C131.726 162.831 132.225 163.198 132.5 163.684C138.686 174.414 144.819 185.183 151.018 195.913C158.32 208.586 165.674 221.233 173.003 233.907C174.119 235.837 175.183 237.794 176.207 239.606H176.194Z" fill="currentColor"/>
<path d="M193.205 0.206296C192.975 0.412591 192.941 0.573043 192.906 0.733496C190.163 4.25198 187.719 7.69024 185.148 11.0368C183.483 13.2144 181.658 15.2544 179.753 17.5581C181.176 18.0853 181.257 19.1626 180.901 20.3545C180.235 22.6696 179.501 24.9847 178.812 27.2883C178.341 28.8699 177.848 30.4286 177.446 32.0217C176.895 34.268 175.793 35.9184 173.303 36.2049C172.396 36.308 171.971 36.904 171.65 37.6719C170.927 39.4025 170.181 41.1331 169.458 42.8522C169.492 43.3221 169.595 43.4482 169.687 43.5857C173.44 40.8236 176.93 37.924 180.488 35.1161C181.509 34.3138 182.577 33.3855 184.344 33.8325C184.608 36.3195 183.104 38.2564 182.094 40.2506C180.786 42.8407 179.466 45.534 176.7 47.3563C176.218 46.2102 175.851 45.3163 175.415 44.2504C174.336 45.3277 174.749 46.4394 174.795 47.448C174.841 48.4795 175.082 49.5339 173.601 49.9006C173.739 50.4393 173.819 50.8863 173.945 51.3218C174.324 52.6742 174.037 53.7171 172.786 54.5537C170.973 55.78 169.044 56.9376 167.564 58.5077C164.603 61.6136 161.791 64.88 159.128 68.2609C149.36 80.6272 139.627 93.0164 129.974 105.451C126.141 110.414 122.525 115.537 118.807 120.58C118.198 121.405 117.728 122.219 119.002 122.883C116.729 124.591 114.078 125.737 113.837 129.198C112.861 128.259 112.241 128.591 111.679 129.382C109.9 131.857 107.903 134.207 106.307 136.797C103.472 141.393 100.867 146.126 98.1583 150.791C97.8943 151.249 97.5271 151.65 97.1368 152.155C97.4582 153.152 97.7451 154.217 98.1239 155.226C98.4453 156.074 99.0651 156.475 99.9948 156.017C100.534 155.535 100.718 155.237 100.913 154.939C101.441 154.435 101.728 154.046 102.015 153.679C102.336 153.404 102.359 153.186 102.405 152.98C102.405 152.945 102.508 152.945 102.554 152.934C102.554 153.129 102.531 153.312 102.52 153.484C102.29 153.839 102.279 154.057 102.279 154.286C102.669 154.378 103.128 154.229 103.358 153.908C108.637 146.802 113.952 139.731 119.139 132.556C126.91 121.84 134.485 110.987 142.324 100.328C148.672 91.687 155.352 83.2861 161.768 74.679C165.085 70.2207 168.138 65.5676 171.305 61.0177C170.858 60.926 170.25 61.0864 169.928 61.4646C167.92 63.8027 165.991 66.198 164.029 68.5704C159.151 74.7019 154.502 80.6272 149.934 86.5869C144.069 94.2427 138.238 101.933 132.408 109.612C129.814 112.981 127.495 116.202 125.177 119.411C123.811 121.531 122.491 123.285 120.953 124.912C121.55 122.952 122.732 121.371 123.96 119.812C126.508 116.179 128.873 112.741 131.226 109.314C134.106 105.417 136.586 101.601 139.329 98.0019C145.469 89.9564 151.782 82.0598 157.923 74.0028C159.461 71.9972 161.274 70.2666 162.823 68.2839C166.118 64.6966 169.148 61.2698 172.178 57.8545C173.75 56.5479 174.68 54.8173 176.987 54.3933C176.39 56.8001 175.208 58.5421 174.186 60.3415C168.872 69.6248 162.491 78.1861 156.109 86.7244C149.257 95.9046 142.267 104.982 135.438 114.173C128.413 123.605 121.527 133.129 114.537 142.596C110.348 148.269 106.388 154.091 102.876 160.234C98.9962 167.042 94.7954 173.655 90.6175 180.291C85.1312 188.978 79.5416 197.597 73.9634 206.227C69.2461 213.539 64.437 220.794 59.7541 228.117C55.9894 233.997 52.351 239.956 48.6551 245.87C47.8058 247.234 47.1745 248.357 46.5433 249.492C46.3711 249.4 46.1989 249.32 46.0268 249.24C46.4744 248.254 46.9335 247.268 47.3926 246.283C48.3452 244.621 49.0569 243.142 49.78 241.664C50.2506 240.701 50.79 239.83 50.6408 238.592C50.5031 237.492 51.3983 236.644 52.4083 236.06C53.338 235.509 53.7627 234.696 54.2218 233.618C55.0941 231.544 56.7354 229.79 57.1601 227.452C57.1601 227.384 57.2519 227.303 57.3093 227.281C59.4671 226.65 59.5819 224.587 60.4542 223.006C61.6938 220.748 63.2203 218.65 64.5862 216.45C66.3078 213.654 68.0295 210.846 69.6478 207.98C70.6578 206.204 70.7382 204.233 70.084 202.296C69.315 200.038 67.8113 199.591 66.3078 201.436C64.5861 203.545 63.0252 205.849 61.8085 208.278C57.4815 216.908 52.4887 225.137 47.3811 233.309C46.9909 233.63 46.8876 233.802 46.7728 233.962C46.4859 234.065 46.4514 234.329 46.4285 234.581C46.3826 234.375 46.3367 234.157 46.2793 233.951C46.5547 233.687 46.5662 233.515 46.5777 233.343C46.8991 232.61 47.0712 232.094 47.2319 231.567C47.2549 231.189 47.1631 231.131 47.0827 231.074C45.9923 230.547 45.7398 231.269 45.4414 231.762C43.8116 234.524 42.1932 237.286 40.6323 240.094C39.7255 241.698 38.9565 243.383 37.9235 245.446C37.3267 244.059 36.9135 243.085 36.3741 241.801C33.9523 246.924 31.5075 251.795 28.179 256.185C30.8074 247.75 34.6868 239.853 38.2564 231.819C38.2334 231.475 38.0957 231.475 37.9465 231.475C34.8131 235.051 33.0455 239.143 31.2091 243.211C31.1173 243.417 30.9336 243.738 31.0025 243.853C32.1503 245.515 30.7385 246.523 29.8892 247.429C28.6955 248.735 27.9954 250.271 27.146 251.749C24.6783 256.024 22.1991 260.288 19.5593 264.46C18.4344 266.225 16.9883 267.863 14.3943 268.127C14.1418 265.801 14.6813 263.623 15.3355 261.514C17.8491 253.4 21.6482 245.824 25.2522 238.18C28.7185 230.81 32.024 223.361 35.3181 215.911C35.9609 214.467 36.2593 212.874 36.7184 211.35C36.5692 211.293 36.4085 211.235 36.2593 211.178C35.3525 212.966 34.4114 214.754 33.5505 216.565C29.9695 224.232 26.2852 231.853 22.8648 239.589C19.9839 246.099 17.4129 252.747 14.7272 259.359C13.7057 261.892 12.4431 264.391 11.8118 267.038C10.3886 273.032 6.00413 277.296 3.20358 282.488C2.36571 284.046 1.195 285.433 0.0242822 286.82C-0.182316 284.757 0.976919 283.129 1.70001 281.433C5.60242 272.276 9.60812 263.176 13.5679 254.053C15.4043 249.813 17.2063 245.549 19.0198 241.286C19.2608 240.713 19.456 240.117 19.674 239.532C19.5937 239.028 19.4789 238.867 19.3642 238.684C17.6999 241.687 16.2881 244.816 14.8993 247.967C11.8577 254.855 8.82766 261.732 5.7746 268.62C5.65983 268.895 5.43027 269.124 4.91378 269.285C5.09742 268.563 5.24662 267.818 5.47617 267.107C6.61246 263.692 7.76024 260.276 8.89653 256.861C8.35708 256.861 7.93239 257.239 7.5192 257.629C7.4159 257.572 7.3126 257.514 7.19782 257.457C7.61102 256.689 8.01275 255.921 8.42594 255.153C8.87357 254.363 9.02276 253.641 9.16049 252.93C10.8362 248.907 12.2824 245.091 13.7401 241.263C13.2121 240.988 12.9252 241.022 12.3972 241.102C12.6841 240.529 12.8908 240.117 13.304 239.28C13.3728 240.071 13.3958 240.357 13.4187 240.644C14.7272 240.323 14.7272 239.074 15.0256 237.973C14.9338 237.607 14.7042 237.653 14.7042 237.653C14.4402 237.847 14.3829 237.985 14.2796 238.1C13.9238 238.409 13.7516 238.569 13.5909 238.741C13.5909 238.535 13.6138 238.34 13.6253 238.134C13.8664 237.813 13.9467 237.676 14.05 237.561C15.4503 234.558 16.6784 231.67 17.895 228.793C19.1461 226.49 20.0987 224.358 21.0514 222.215C22.2106 219.567 23.3584 216.897 24.5176 214.261C28.4889 205.23 32.2765 196.107 36.5118 187.202C39.6337 180.635 43.3525 174.343 46.8073 167.936C47.0598 167.466 47.3926 167.031 47.9091 166.251C48.1731 167.283 48.3453 167.982 48.5174 168.704C51.1573 170.022 51.7541 172.979 53.4872 175.019C53.7971 175.294 53.9119 175.283 54.0382 175.283C52.4313 170.836 50.4916 166.297 48.4486 161.541C58.1701 144.224 67.9835 126.757 77.8658 109.176C78.2331 110.059 78.5545 110.827 79.0021 111.881C80.1958 110.483 79.6793 109.36 79.2776 108.328C78.8988 107.297 79.0136 106.552 80.2417 105.772C81.6075 110.529 82.916 115.159 84.2359 119.778C84.5573 120.121 84.7524 120.121 84.9476 120.133C84.6262 117.715 84.1212 115.25 83.3751 112.867C81.9289 108.202 83.1685 104.133 85.6247 100.145C90.2043 92.7299 95.5299 85.8763 100.856 78.9998C106.227 72.0659 111.679 65.2123 117.096 58.3129C117.475 58.2212 117.533 58.0837 117.59 57.9462C117.613 58.0493 117.624 58.1525 117.647 58.2671C117.383 58.588 117.383 58.8745 117.383 59.459C118.634 58.6338 119.69 57.9462 120.758 57.247C121.079 55.7686 120.046 54.611 120.861 53.3962C121.676 52.3762 122.193 51.6083 122.721 50.8519C124.144 49.0181 125.28 47.3219 126.428 45.6257C126.784 45.1558 126.841 44.7776 126.921 44.2046C126.129 44.3536 125.429 44.4796 124.729 44.6057C124.637 44.5026 124.557 44.3879 124.465 44.2733C125.888 43.0126 127.312 41.7405 128.758 40.4454C129.251 41.8895 128.896 43.0241 127.185 45.5684C125.774 47.4365 124.649 49.1327 123.512 50.8175C122.95 51.5625 122.686 52.1928 122.422 52.8231C122.388 54.0151 122.284 54.8403 122.193 55.6654C124.017 54.1755 125.292 52.4335 125.957 50.2788C126.164 49.6256 126.91 49.1442 127.426 48.6055C127.621 48.3878 127.954 48.2273 128.035 47.9867C129.653 43.5169 132.878 40.1474 135.943 36.7092C143.22 28.5605 151.047 20.9734 159.621 14.1771C160.436 13.5353 161.343 13.0195 162.204 12.4465C162.341 12.6184 162.468 12.8018 162.617 12.9852C159.334 16.0681 156.063 19.1397 152.792 22.2226C152.7 22.4977 152.838 22.5435 152.976 22.5894C157.555 19.3803 161.676 16.0452 165.877 12.8247C168.585 10.7274 171.397 8.77903 174.186 6.7963C174.485 6.57854 174.864 6.47539 175.644 6.10864C175.139 7.19743 174.795 7.908 174.473 8.63003C174.623 8.87071 175.024 8.84779 175.449 8.83633C176.092 8.42374 176.333 8.16014 176.562 7.88508C176.861 7.61002 176.941 7.48395 177.079 7.39226C177.515 7.01405 177.744 6.73899 177.986 6.46393C178.272 6.20033 178.364 6.07426 178.479 5.97111C178.732 5.70751 178.823 5.5929 178.95 5.50122C179.259 5.272 179.351 5.15739 179.443 5.03132C179.764 4.83649 179.833 4.71042 179.925 4.58435C180.235 4.36659 180.304 4.22906 180.396 4.09153C180.717 3.91962 180.809 3.81647 180.901 3.70186C180.924 3.82793 180.935 3.94254 180.97 4.06861C180.706 4.32075 180.625 4.44682 180.556 4.58435C180.293 4.82503 180.189 4.9511 180.063 5.04278C179.799 5.28346 179.742 5.43245 179.684 5.5929C179.42 5.89089 179.317 6.0055 179.191 6.08572C178.927 6.3264 178.812 6.44101 178.697 6.5327C178.284 6.93383 178.054 7.22035 177.836 7.49541C177.503 7.71316 177.423 7.83923 177.32 7.94238C176.907 8.36643 176.654 8.6415 176.413 8.91656C174.955 10.2231 173.762 11.3921 172.545 12.5726C168.884 16.1484 165.429 19.5637 162.192 23.1739C160.7 24.8357 159.633 26.8757 158.37 28.7439C157.762 29.6493 157.154 30.5661 156.534 31.4715C156.534 31.9185 156.649 32.079 156.763 32.228C165.027 23.9532 173.05 15.5295 182.049 8.12576C185.228 5.50122 188.614 3.11736 191.919 0.618887C192.378 0.366748 192.539 0.252139 192.711 0.148991C192.975 0.217757 192.987 0.114609 193.01 0C193.044 0.0916869 193.09 0.160452 193.125 0.252139L193.205 0.206296Z" fill="currentColor"/>
<path d="M71.3124 71.2431C64.4963 82.5375 57.7591 93.8976 51.0087 105.231C49.4459 107.858 47.9093 110.485 46.3202 113.098C45.9656 113.676 45.506 114.201 44.8887 115.042C40.8963 108.108 37.0483 101.462 33.2266 94.7907C29.9302 89.0778 26.8833 83.6801 23.7971 78.2956C19.3318 70.5077 14.8666 62.7198 10.3619 54.945C7.30195 49.6655 4.18945 44.4123 1.11632 39.146C0.735458 38.4893 0.446523 37.767 0 36.8477H55.7891C58.3107 41.8251 60.8847 46.8551 63.4194 51.8981C66.0854 57.2039 68.6727 62.5228 71.3912 67.7891C72.0347 69.0499 72.0741 69.9561 71.2992 71.23L71.3124 71.2431Z" fill="currentColor"/>
</svg>

